<svg xmlns="http://www.w3.org/2000/svg" xmlns:xlink="http://www.w3.org/1999/xlink" width="270" zoomAndPan="magnify" viewBox="0 0 202.5 52.499999" height="70" preserveAspectRatio="xMidYMid meet" version="1.0"><defs><g/><clipPath id="id1"><path d="M 5.921875 14.820312 L 31.988281 14.820312 L 31.988281 37.164062 L 5.921875 37.164062 Z M 5.921875 14.820312 " clip-rule="nonzero"/></clipPath></defs><g clip-path="url(#id1)"><path fill="#000000" d="M 8.183594 14.820312 L 29.726562 14.820312 C 30.324219 14.820312 30.898438 15.054688 31.324219 15.472656 C 31.746094 15.886719 31.984375 16.453125 31.984375 17.039062 L 31.984375 34.945312 C 31.984375 35.53125 31.746094 36.097656 31.324219 36.511719 C 30.898438 36.929688 30.324219 37.164062 29.726562 37.164062 L 8.183594 37.164062 C 7.585938 37.164062 7.007812 36.929688 6.585938 36.511719 C 6.160156 36.097656 5.925781 35.53125 5.925781 34.945312 L 5.925781 17.039062 C 5.925781 16.453125 6.160156 15.886719 6.585938 15.472656 C 7.007812 15.054688 7.585938 14.820312 8.183594 14.820312 " fill-opacity="1" fill-rule="nonzero"/></g><g fill="#ffffff" fill-opacity="1"><g transform="translate(8.676469, 32.397009)"><g><path d="M 1.390625 -6.8125 L 6.515625 -9.796875 L 6.515625 -8.875 L 2.171875 -6.359375 L 6.515625 -3.828125 L 6.515625 -2.921875 L 1.390625 -5.890625 Z M 1.390625 -6.8125 "/></g></g></g><g fill="#ffffff" fill-opacity="1"><g transform="translate(16.577725, 32.397009)"><g><path d="M 0.59375 0 L 3.9375 -13.90625 L 4.75 -13.90625 L 1.40625 0 Z M 0.59375 0 "/></g></g></g><g fill="#ffffff" fill-opacity="1"><g transform="translate(21.918019, 32.397009)"><g><path d="M 6.515625 -5.890625 L 1.390625 -2.921875 L 1.390625 -3.828125 L 5.734375 -6.359375 L 1.390625 -8.875 L 1.390625 -9.796875 L 6.515625 -6.8125 Z M 6.515625 -5.890625 "/></g></g></g><g fill="#000000" fill-opacity="1"><g transform="translate(39.137103, 33.141768)"><g><path d="M 4.1875 0.21875 C 2.957031 0.21875 1.925781 -0.0625 1.09375 -0.625 C 0.257812 -1.195312 -0.316406 -2.007812 -0.640625 -3.0625 L 2.578125 -4.515625 C 2.734375 -4.054688 2.941406 -3.726562 3.203125 -3.53125 C 3.460938 -3.34375 3.753906 -3.25 4.078125 -3.25 C 4.441406 -3.25 4.726562 -3.363281 4.9375 -3.59375 C 5.15625 -3.832031 5.265625 -4.15625 5.265625 -4.5625 L 5.265625 -14.09375 L 9.234375 -14.09375 L 9.234375 -5.0625 C 9.234375 -3.425781 8.785156 -2.132812 7.890625 -1.1875 C 6.992188 -0.25 5.757812 0.21875 4.1875 0.21875 Z M 4.1875 0.21875 "/></g></g></g><g fill="#000000" fill-opacity="1"><g transform="translate(49.519907, 33.141768)"><g><path d="M -0.78125 0 L 5.4375 -14.09375 L 8.734375 -14.09375 L 14.734375 0 L 10.71875 0 L 9.734375 -2.515625 L 4.265625 -2.515625 L 3.234375 0 Z M 5.625 -5.796875 L 8.421875 -5.796875 L 7.046875 -9.25 Z M 5.625 -5.796875 "/></g></g></g><g fill="#000000" fill-opacity="1"><g transform="translate(63.555558, 33.141768)"><g><path d="M 10.1875 -14.09375 L 14 -14.09375 L 14 0 L 10.46875 0 L 5 -7.59375 L 5 0 L 1.1875 0 L 1.1875 -14.09375 L 4.71875 -14.09375 L 10.1875 -6.53125 Z M 10.1875 -14.09375 "/></g></g></g><g fill="#000000" fill-opacity="1"><g transform="translate(78.737326, 33.141768)"><g/></g></g><g fill="#000000" fill-opacity="1"><g transform="translate(83.93866, 33.141768)"><g/></g></g><g fill="#000000" fill-opacity="1"><g transform="translate(89.129039, 33.141768)"><g><path d="M 1.1875 0 L 1.1875 -14.09375 L 5.15625 -14.09375 L 5.15625 -8.234375 L 10.1875 -14.09375 L 14.921875 -14.09375 L 8.765625 -7.03125 C 9.078125 -6.851562 9.359375 -6.632812 9.609375 -6.375 C 9.859375 -6.113281 10.078125 -5.820312 10.265625 -5.5 L 11.046875 -4.171875 C 11.390625 -3.546875 11.910156 -3.234375 12.609375 -3.234375 C 13.179688 -3.234375 13.691406 -3.375 14.140625 -3.65625 L 15.046875 -0.59375 C 14.734375 -0.34375 14.3125 -0.144531 13.78125 0 C 13.25 0.15625 12.710938 0.234375 12.171875 0.234375 C 10.171875 0.234375 8.742188 -0.5 7.890625 -1.96875 L 6.59375 -4.171875 C 6.382812 -4.523438 6.179688 -4.789062 5.984375 -4.96875 C 5.785156 -5.15625 5.507812 -5.28125 5.15625 -5.34375 L 5.15625 0 Z M 1.1875 0 "/></g></g></g><g fill="#000000" fill-opacity="1"><g transform="translate(103.402916, 33.141768)"><g><path d="M 7.859375 0.203125 C 6.335938 0.210938 5.023438 -0.0546875 3.921875 -0.609375 C 2.828125 -1.171875 1.988281 -1.972656 1.40625 -3.015625 C 0.820312 -4.066406 0.53125 -5.328125 0.53125 -6.796875 C 0.53125 -8.304688 0.847656 -9.625 1.484375 -10.75 C 2.117188 -11.875 3.003906 -12.742188 4.140625 -13.359375 C 5.285156 -13.984375 6.617188 -14.296875 8.140625 -14.296875 C 9.535156 -14.296875 10.75 -14.003906 11.78125 -13.421875 C 12.820312 -12.835938 13.628906 -12.023438 14.203125 -10.984375 C 14.785156 -9.953125 15.078125 -8.734375 15.078125 -7.328125 C 15.078125 -5.847656 14.773438 -4.546875 14.171875 -3.421875 C 13.566406 -2.296875 12.722656 -1.414062 11.640625 -0.78125 C 10.554688 -0.144531 9.296875 0.179688 7.859375 0.203125 Z M 7.765625 -3.28125 C 8.785156 -3.28125 9.59375 -3.640625 10.1875 -4.359375 C 10.78125 -5.078125 11.078125 -6.039062 11.078125 -7.25 C 11.078125 -8.332031 10.796875 -9.195312 10.234375 -9.84375 C 9.671875 -10.5 8.921875 -10.828125 7.984375 -10.828125 C 7.296875 -10.828125 6.691406 -10.65625 6.171875 -10.3125 C 5.660156 -9.976562 5.257812 -9.515625 4.96875 -8.921875 C 4.6875 -8.335938 4.546875 -7.660156 4.546875 -6.890625 C 4.546875 -5.753906 4.828125 -4.867188 5.390625 -4.234375 C 5.960938 -3.597656 6.753906 -3.28125 7.765625 -3.28125 Z M 7.765625 -3.28125 "/></g></g></g><g fill="#000000" fill-opacity="1"><g transform="translate(119.006907, 33.141768)"><g><path d="M 12.765625 -14.09375 L 12.1875 -10.640625 L 8.0625 -10.640625 L 8.0625 0 L 4.09375 0 L 4.09375 -10.640625 L -0.3125 -10.640625 L -0.3125 -14.09375 Z M 12.765625 -14.09375 "/></g></g></g><g fill="#000000" fill-opacity="1"><g transform="translate(131.136727, 33.141768)"><g><path d="M -0.78125 0 L 5.4375 -14.09375 L 8.734375 -14.09375 L 14.734375 0 L 10.71875 0 L 9.734375 -2.515625 L 4.265625 -2.515625 L 3.234375 0 Z M 5.625 -5.796875 L 8.421875 -5.796875 L 7.046875 -9.25 Z M 5.625 -5.796875 "/></g></g></g><g fill="#000000" fill-opacity="1"><g transform="translate(145.172378, 33.141768)"><g><path d="M 10.1875 -14.09375 L 14 -14.09375 L 14 0 L 10.46875 0 L 5 -7.59375 L 5 0 L 1.1875 0 L 1.1875 -14.09375 L 4.71875 -14.09375 L 10.1875 -6.53125 Z M 10.1875 -14.09375 "/></g></g></g><g fill="#000000" fill-opacity="1"><g transform="translate(160.359465, 33.141768)"><g><path d="M 1.1875 0 L 1.1875 -14.09375 L 5.15625 -14.09375 L 5.15625 0 Z M 1.1875 0 "/></g></g></g><g fill="#000000" fill-opacity="1"><g transform="translate(166.712234, 33.141768)"><g><path d="M -0.78125 0 L 5.4375 -14.09375 L 8.734375 -14.09375 L 14.734375 0 L 10.71875 0 L 9.734375 -2.515625 L 4.265625 -2.515625 L 3.234375 0 Z M 5.625 -5.796875 L 8.421875 -5.796875 L 7.046875 -9.25 Z M 5.625 -5.796875 "/></g></g></g></svg>